<?xml version="1.0" encoding="UTF-8"?><svg xmlns="http://www.w3.org/2000/svg" xmlns:xlink="http://www.w3.org/1999/xlink" version="1.1" x="0px" y="0px" viewBox="0 0 32 32" xml:space="preserve"><g id="Blue_copy_3"><path d="M0 0h32v32H0z"/><path id="Cat_9_" fill="#F00" d="M22.21 7.055c.638 1.601.139 2.688.018 2.982.596.596 1.193 1.193 1.193 4.175 0 2.982-2.165 4.477-4.771 4.771.336.291.596 1.317.596 1.789v4.175h.001-4.768s.007-1.415 0-2.385a5.239 5.239 0 0 1-1.105.125c-2.37 0-3.07-1.914-3.07-1.914-.596-1.193-1.193-1.789-1.193-1.789-.906-.538-.436-.603-.157-.603.088 0 .157.006.157.006 1.193 0 1.789 1.193 1.789 1.193.654 1.11 1.625 1.415 2.426 1.415.481 0 .901-.11 1.152-.222 0-.596.261-1.498.596-1.789-2.605-.293-4.773-1.789-4.773-4.771s.599-3.578 1.195-4.175c-.12-.294-.62-1.381.018-2.982 0 0 1.172 0 2.365 1.789.591-.591 2.385-.596 2.982-.596.595 0 2.39.005 2.981.596 1.193-1.79 2.368-1.79 2.368-1.79m.339-.5h-.339c-.137 0-1.29.048-2.495 1.609-.774-.367-1.957-.417-2.853-.417-.896 0-2.08.05-2.855.417-1.205-1.561-2.356-1.609-2.492-1.609h-.339l-.126.315c-.419 1.051-.463 2.075-.134 3.049-.664.727-1.115 1.627-1.115 4.293 0 2.698 1.652 4.581 4.463 5.15a4.35 4.35 0 0 0-.263 1.046 2.705 2.705 0 0 1-.676.086c-.596 0-1.426-.203-1.995-1.169-.014-.03-.731-1.431-2.208-1.439a1.936 1.936 0 0 0-.169-.007c-.596 0-.792.261-.852.48-.134.488.371.824.693 1.017.132.145.591.683 1.052 1.599.114.284.982 2.21 3.527 2.21.197 0 .4-.012.607-.036.002.867-.002 1.794-.002 1.794l-.002.502h5.77v-.5l-.001-4.175c0-.323-.101-.906-.296-1.408 2.815-.567 4.471-2.451 4.471-5.152 0-2.668-.451-3.568-1.114-4.294.33-.988.283-2.004-.132-3.047l-.125-.314z"/></g><metadata><rdf:RDF xmlns:rdf="http://www.w3.org/1999/02/22-rdf-syntax-ns#" xmlns:rdfs="http://www.w3.org/2000/01/rdf-schema#" xmlns:dc="http://purl.org/dc/elements/1.1/"><rdf:Description about="https://iconscout.com/legal#licenses" dc:title="github,social,media,share" dc:description="github,social,media,share" dc:publisher="Iconscout" dc:date="2017-09-15" dc:format="image/svg+xml" dc:language="en"><dc:creator><rdf:Bag><rdf:li>Epicflaticon by Alfredo</rdf:li></rdf:Bag></dc:creator></rdf:Description></rdf:RDF></metadata></svg>